<mxfile host="app.diagrams.net" modified="2023-10-18T09:56:59.516Z" agent="Mozilla/5.0 (Macintosh; Intel Mac OS X 10_15_7) AppleWebKit/537.36 (KHTML, like Gecko) Chrome/117.0.0.0 Safari/537.36" etag="v1BbzjjOHr2Agv_68brM" version="22.0.4" type="device">
  <diagram name="Seite-1" id="QlhiIvQ4_2E_zhbugzKK">
    <mxGraphModel dx="3215" dy="2066" grid="1" gridSize="10" guides="1" tooltips="1" connect="1" arrows="1" fold="1" page="1" pageScale="1" pageWidth="827" pageHeight="1169" math="0" shadow="0">
      <root>
        <mxCell id="0" />
        <mxCell id="1" parent="0" />
        <mxCell id="5CUBUq4CtGVq6OdzhweH-41" value="Piece #1" style="whiteSpace=wrap;html=1;fontStyle=1;fillColor=#f5f5f5;strokeColor=#66B2FF;fontColor=#333333;" vertex="1" parent="1">
          <mxGeometry x="80" y="2302" width="280" height="60" as="geometry" />
        </mxCell>
        <mxCell id="5CUBUq4CtGVq6OdzhweH-28" value="TransportMovement&lt;br&gt;LH400/16OCT2023 FRA-JFK" style="whiteSpace=wrap;html=1;fontStyle=1;fillColor=#f5f5f5;strokeColor=#66B2FF;fontColor=#333333;" vertex="1" parent="1">
          <mxGeometry x="860" y="1400" width="280" height="60" as="geometry" />
        </mxCell>
        <mxCell id="KiZJLOA3F3ZZ3r3pBosK-10" style="edgeStyle=orthogonalEdgeStyle;rounded=0;orthogonalLoop=1;jettySize=auto;html=1;entryX=0;entryY=0.5;entryDx=0;entryDy=0;exitX=0.058;exitY=0.967;exitDx=0;exitDy=0;exitPerimeter=0;startArrow=classic;startFill=1;strokeColor=#66B2FF;" parent="1" source="KiZJLOA3F3ZZ3r3pBosK-2" target="KiZJLOA3F3ZZ3r3pBosK-4" edge="1">
          <mxGeometry relative="1" as="geometry" />
        </mxCell>
        <mxCell id="KiZJLOA3F3ZZ3r3pBosK-2" value="Shipment" style="whiteSpace=wrap;html=1;fontStyle=1;fillColor=#f5f5f5;strokeColor=#66B2FF;fontColor=#333333;" parent="1" vertex="1">
          <mxGeometry x="40" y="188" width="330" height="60" as="geometry" />
        </mxCell>
        <mxCell id="KiZJLOA3F3ZZ3r3pBosK-4" value="Piece" style="whiteSpace=wrap;html=1;fontStyle=1;fillColor=#f5f5f5;strokeColor=#66B2FF;fontColor=#333333;" parent="1" vertex="1">
          <mxGeometry x="80" y="310" width="280" height="60" as="geometry" />
        </mxCell>
        <mxCell id="KiZJLOA3F3ZZ3r3pBosK-8" value="FOH" style="rhombus;whiteSpace=wrap;html=1;labelBackgroundColor=none;labelBorderColor=none;fillColor=#d5e8d4;strokeColor=#82b366;" parent="1" vertex="1">
          <mxGeometry x="80" y="350" width="60" height="60" as="geometry" />
        </mxCell>
        <mxCell id="KiZJLOA3F3ZZ3r3pBosK-9" value="RCS" style="rhombus;whiteSpace=wrap;html=1;labelBackgroundColor=none;labelBorderColor=none;fillColor=#d5e8d4;strokeColor=#82b366;" parent="1" vertex="1">
          <mxGeometry x="140" y="350" width="60" height="60" as="geometry" />
        </mxCell>
        <mxCell id="KiZJLOA3F3ZZ3r3pBosK-1" value="BKD" style="rhombus;whiteSpace=wrap;html=1;labelBackgroundColor=none;labelBorderColor=none;fillColor=#d5e8d4;strokeColor=#82b366;" parent="1" vertex="1">
          <mxGeometry x="64" y="230" width="60" height="60" as="geometry" />
        </mxCell>
        <mxCell id="KiZJLOA3F3ZZ3r3pBosK-6" value="FOH" style="rhombus;whiteSpace=wrap;html=1;labelBackgroundColor=none;labelBorderColor=none;fillColor=#d5e8d4;strokeColor=#82b366;" parent="1" vertex="1">
          <mxGeometry x="124" y="230" width="60" height="60" as="geometry" />
        </mxCell>
        <mxCell id="KiZJLOA3F3ZZ3r3pBosK-7" value="RCS" style="rhombus;whiteSpace=wrap;html=1;labelBackgroundColor=none;labelBorderColor=none;fillColor=#d5e8d4;strokeColor=#82b366;" parent="1" vertex="1">
          <mxGeometry x="184" y="230" width="60" height="60" as="geometry" />
        </mxCell>
        <mxCell id="KiZJLOA3F3ZZ3r3pBosK-11" style="edgeStyle=orthogonalEdgeStyle;rounded=0;orthogonalLoop=1;jettySize=auto;html=1;entryX=0;entryY=0.5;entryDx=0;entryDy=0;exitX=0.058;exitY=0.967;exitDx=0;exitDy=0;exitPerimeter=0;startArrow=classic;startFill=1;strokeColor=#66B2FF;" parent="1" source="KiZJLOA3F3ZZ3r3pBosK-12" target="KiZJLOA3F3ZZ3r3pBosK-13" edge="1">
          <mxGeometry relative="1" as="geometry" />
        </mxCell>
        <mxCell id="KiZJLOA3F3ZZ3r3pBosK-12" value="Shipment" style="whiteSpace=wrap;html=1;fontStyle=1;fillColor=#f5f5f5;strokeColor=#66B2FF;fontColor=#333333;" parent="1" vertex="1">
          <mxGeometry x="40" y="458" width="330" height="60" as="geometry" />
        </mxCell>
        <mxCell id="KiZJLOA3F3ZZ3r3pBosK-25" style="edgeStyle=orthogonalEdgeStyle;rounded=0;orthogonalLoop=1;jettySize=auto;html=1;entryX=0;entryY=0.5;entryDx=0;entryDy=0;startArrow=classic;startFill=1;strokeColor=#66B2FF;" parent="1" source="KiZJLOA3F3ZZ3r3pBosK-13" target="KiZJLOA3F3ZZ3r3pBosK-23" edge="1">
          <mxGeometry relative="1" as="geometry" />
        </mxCell>
        <mxCell id="KiZJLOA3F3ZZ3r3pBosK-13" value="Piece" style="whiteSpace=wrap;html=1;fontStyle=1;fillColor=#f5f5f5;strokeColor=#66B2FF;fontColor=#333333;" parent="1" vertex="1">
          <mxGeometry x="80" y="580" width="280" height="60" as="geometry" />
        </mxCell>
        <mxCell id="KiZJLOA3F3ZZ3r3pBosK-14" value="FOH" style="rhombus;whiteSpace=wrap;html=1;labelBackgroundColor=none;labelBorderColor=none;fillColor=#d5e8d4;strokeColor=#82b366;" parent="1" vertex="1">
          <mxGeometry x="80" y="620" width="60" height="60" as="geometry" />
        </mxCell>
        <mxCell id="KiZJLOA3F3ZZ3r3pBosK-15" value="RCS" style="rhombus;whiteSpace=wrap;html=1;labelBackgroundColor=none;labelBorderColor=none;fillColor=#d5e8d4;strokeColor=#82b366;" parent="1" vertex="1">
          <mxGeometry x="140" y="620" width="60" height="60" as="geometry" />
        </mxCell>
        <mxCell id="KiZJLOA3F3ZZ3r3pBosK-16" value="BKD" style="rhombus;whiteSpace=wrap;html=1;labelBackgroundColor=none;labelBorderColor=none;fillColor=#d5e8d4;strokeColor=#82b366;" parent="1" vertex="1">
          <mxGeometry x="64" y="500" width="60" height="60" as="geometry" />
        </mxCell>
        <mxCell id="KiZJLOA3F3ZZ3r3pBosK-17" value="FOH" style="rhombus;whiteSpace=wrap;html=1;labelBackgroundColor=none;labelBorderColor=none;fillColor=#d5e8d4;strokeColor=#82b366;" parent="1" vertex="1">
          <mxGeometry x="124" y="500" width="60" height="60" as="geometry" />
        </mxCell>
        <mxCell id="KiZJLOA3F3ZZ3r3pBosK-18" value="RCS" style="rhombus;whiteSpace=wrap;html=1;labelBackgroundColor=none;labelBorderColor=none;fillColor=#d5e8d4;strokeColor=#82b366;" parent="1" vertex="1">
          <mxGeometry x="184" y="500" width="60" height="60" as="geometry" />
        </mxCell>
        <mxCell id="KiZJLOA3F3ZZ3r3pBosK-19" value="MAN" style="rhombus;whiteSpace=wrap;html=1;labelBackgroundColor=none;labelBorderColor=none;fillColor=#d5e8d4;strokeColor=#82b366;" parent="1" vertex="1">
          <mxGeometry x="244" y="500" width="60" height="60" as="geometry" />
        </mxCell>
        <mxCell id="KiZJLOA3F3ZZ3r3pBosK-20" value="DEP" style="rhombus;whiteSpace=wrap;html=1;labelBackgroundColor=none;labelBorderColor=none;fillColor=#d5e8d4;strokeColor=#82b366;" parent="1" vertex="1">
          <mxGeometry x="304" y="500" width="60" height="60" as="geometry" />
        </mxCell>
        <mxCell id="KiZJLOA3F3ZZ3r3pBosK-21" value="MAN" style="rhombus;whiteSpace=wrap;html=1;labelBackgroundColor=none;labelBorderColor=none;fillColor=#d5e8d4;strokeColor=#82b366;" parent="1" vertex="1">
          <mxGeometry x="200" y="620" width="60" height="60" as="geometry" />
        </mxCell>
        <mxCell id="KiZJLOA3F3ZZ3r3pBosK-22" value="DEP" style="rhombus;whiteSpace=wrap;html=1;labelBackgroundColor=none;labelBorderColor=none;fillColor=#d5e8d4;strokeColor=#82b366;" parent="1" vertex="1">
          <mxGeometry x="260" y="620" width="60" height="60" as="geometry" />
        </mxCell>
        <mxCell id="KiZJLOA3F3ZZ3r3pBosK-26" style="edgeStyle=orthogonalEdgeStyle;rounded=0;orthogonalLoop=1;jettySize=auto;html=1;entryX=0;entryY=0.5;entryDx=0;entryDy=0;startArrow=classic;startFill=1;strokeColor=#66B2FF;" parent="1" source="KiZJLOA3F3ZZ3r3pBosK-23" target="KiZJLOA3F3ZZ3r3pBosK-24" edge="1">
          <mxGeometry relative="1" as="geometry" />
        </mxCell>
        <mxCell id="KiZJLOA3F3ZZ3r3pBosK-23" value="Loading" style="whiteSpace=wrap;html=1;fontStyle=1;fillColor=#f5f5f5;strokeColor=#66B2FF;fontColor=#333333;" parent="1" vertex="1">
          <mxGeometry x="490" y="580" width="280" height="60" as="geometry" />
        </mxCell>
        <mxCell id="KiZJLOA3F3ZZ3r3pBosK-24" value="TransportMovement&lt;br&gt;LH400/16OCT2023 FRA-JFK" style="whiteSpace=wrap;html=1;fontStyle=1;fillColor=#f5f5f5;strokeColor=#66B2FF;fontColor=#333333;" parent="1" vertex="1">
          <mxGeometry x="850" y="580" width="280" height="60" as="geometry" />
        </mxCell>
        <mxCell id="KiZJLOA3F3ZZ3r3pBosK-27" style="edgeStyle=orthogonalEdgeStyle;rounded=0;orthogonalLoop=1;jettySize=auto;html=1;entryX=0;entryY=0.5;entryDx=0;entryDy=0;exitX=0.058;exitY=0.967;exitDx=0;exitDy=0;exitPerimeter=0;startArrow=classic;startFill=1;strokeColor=#66B2FF;" parent="1" source="KiZJLOA3F3ZZ3r3pBosK-28" target="KiZJLOA3F3ZZ3r3pBosK-30" edge="1">
          <mxGeometry relative="1" as="geometry" />
        </mxCell>
        <mxCell id="5CUBUq4CtGVq6OdzhweH-10" style="edgeStyle=orthogonalEdgeStyle;rounded=0;orthogonalLoop=1;jettySize=auto;html=1;entryX=0;entryY=0.5;entryDx=0;entryDy=0;exitX=0.058;exitY=1.008;exitDx=0;exitDy=0;exitPerimeter=0;strokeColor=#66B2FF;" edge="1" parent="1" source="KiZJLOA3F3ZZ3r3pBosK-28" target="5CUBUq4CtGVq6OdzhweH-4">
          <mxGeometry relative="1" as="geometry" />
        </mxCell>
        <mxCell id="KiZJLOA3F3ZZ3r3pBosK-28" value="Shipment" style="whiteSpace=wrap;html=1;fontStyle=1;fillColor=#f5f5f5;strokeColor=#66B2FF;fontColor=#333333;" parent="1" vertex="1">
          <mxGeometry x="40" y="758" width="330" height="60" as="geometry" />
        </mxCell>
        <mxCell id="KiZJLOA3F3ZZ3r3pBosK-29" style="edgeStyle=orthogonalEdgeStyle;rounded=0;orthogonalLoop=1;jettySize=auto;html=1;entryX=0;entryY=0.5;entryDx=0;entryDy=0;startArrow=classic;startFill=1;strokeColor=#66B2FF;" parent="1" source="KiZJLOA3F3ZZ3r3pBosK-30" target="KiZJLOA3F3ZZ3r3pBosK-41" edge="1">
          <mxGeometry relative="1" as="geometry" />
        </mxCell>
        <mxCell id="KiZJLOA3F3ZZ3r3pBosK-30" value="Piece #1" style="whiteSpace=wrap;html=1;fontStyle=1;fillColor=#f5f5f5;strokeColor=#66B2FF;fontColor=#333333;" parent="1" vertex="1">
          <mxGeometry x="80" y="880" width="280" height="60" as="geometry" />
        </mxCell>
        <mxCell id="KiZJLOA3F3ZZ3r3pBosK-31" value="FOH" style="rhombus;whiteSpace=wrap;html=1;labelBackgroundColor=none;labelBorderColor=none;fillColor=#d5e8d4;strokeColor=#82b366;" parent="1" vertex="1">
          <mxGeometry x="80" y="920" width="60" height="60" as="geometry" />
        </mxCell>
        <mxCell id="KiZJLOA3F3ZZ3r3pBosK-32" value="RCS" style="rhombus;whiteSpace=wrap;html=1;labelBackgroundColor=none;labelBorderColor=none;fillColor=#d5e8d4;strokeColor=#82b366;" parent="1" vertex="1">
          <mxGeometry x="140" y="920" width="60" height="60" as="geometry" />
        </mxCell>
        <mxCell id="KiZJLOA3F3ZZ3r3pBosK-33" value="BKD" style="rhombus;whiteSpace=wrap;html=1;labelBackgroundColor=none;labelBorderColor=none;fillColor=#d5e8d4;strokeColor=#82b366;" parent="1" vertex="1">
          <mxGeometry x="64" y="800" width="60" height="60" as="geometry" />
        </mxCell>
        <mxCell id="KiZJLOA3F3ZZ3r3pBosK-34" value="FOH" style="rhombus;whiteSpace=wrap;html=1;labelBackgroundColor=none;labelBorderColor=none;fillColor=#d5e8d4;strokeColor=#82b366;" parent="1" vertex="1">
          <mxGeometry x="124" y="800" width="60" height="60" as="geometry" />
        </mxCell>
        <mxCell id="KiZJLOA3F3ZZ3r3pBosK-35" value="RCS" style="rhombus;whiteSpace=wrap;html=1;labelBackgroundColor=none;labelBorderColor=none;fillColor=#d5e8d4;strokeColor=#82b366;" parent="1" vertex="1">
          <mxGeometry x="184" y="800" width="60" height="60" as="geometry" />
        </mxCell>
        <mxCell id="KiZJLOA3F3ZZ3r3pBosK-36" value="MAN" style="rhombus;whiteSpace=wrap;html=1;labelBackgroundColor=none;labelBorderColor=none;fillColor=#fff2cc;gradientDirection=east;strokeColor=#d6b656;" parent="1" vertex="1">
          <mxGeometry x="244" y="800" width="60" height="60" as="geometry" />
        </mxCell>
        <mxCell id="KiZJLOA3F3ZZ3r3pBosK-37" value="DEP" style="rhombus;whiteSpace=wrap;html=1;labelBackgroundColor=none;labelBorderColor=none;fillColor=#fff2cc;gradientDirection=east;strokeColor=#d6b656;" parent="1" vertex="1">
          <mxGeometry x="304" y="800" width="60" height="60" as="geometry" />
        </mxCell>
        <mxCell id="KiZJLOA3F3ZZ3r3pBosK-38" value="MAN" style="rhombus;whiteSpace=wrap;html=1;labelBackgroundColor=none;labelBorderColor=none;fillColor=#d5e8d4;strokeColor=#82b366;" parent="1" vertex="1">
          <mxGeometry x="200" y="920" width="60" height="60" as="geometry" />
        </mxCell>
        <mxCell id="KiZJLOA3F3ZZ3r3pBosK-39" value="DEP" style="rhombus;whiteSpace=wrap;html=1;labelBackgroundColor=none;labelBorderColor=none;fillColor=#d5e8d4;strokeColor=#82b366;" parent="1" vertex="1">
          <mxGeometry x="260" y="920" width="60" height="60" as="geometry" />
        </mxCell>
        <mxCell id="KiZJLOA3F3ZZ3r3pBosK-40" style="edgeStyle=orthogonalEdgeStyle;rounded=0;orthogonalLoop=1;jettySize=auto;html=1;entryX=0;entryY=0.5;entryDx=0;entryDy=0;startArrow=classic;startFill=1;strokeColor=#66B2FF;" parent="1" source="KiZJLOA3F3ZZ3r3pBosK-41" target="5CUBUq4CtGVq6OdzhweH-1" edge="1">
          <mxGeometry relative="1" as="geometry">
            <mxPoint x="850" y="910" as="targetPoint" />
          </mxGeometry>
        </mxCell>
        <mxCell id="KiZJLOA3F3ZZ3r3pBosK-41" value="Loading" style="whiteSpace=wrap;html=1;fontStyle=1;fillColor=#f5f5f5;strokeColor=#66B2FF;fontColor=#333333;" parent="1" vertex="1">
          <mxGeometry x="490" y="880" width="280" height="60" as="geometry" />
        </mxCell>
        <mxCell id="5CUBUq4CtGVq6OdzhweH-1" value="TransportMovement&lt;br&gt;LH400/16OCT2023 FRA-JFK" style="whiteSpace=wrap;html=1;fontStyle=1;fillColor=#f5f5f5;strokeColor=#66B2FF;fontColor=#333333;" vertex="1" parent="1">
          <mxGeometry x="850" y="880" width="280" height="60" as="geometry" />
        </mxCell>
        <mxCell id="5CUBUq4CtGVq6OdzhweH-4" value="Piece #2" style="whiteSpace=wrap;html=1;fontStyle=1;fillColor=#f5f5f5;strokeColor=#66B2FF;fontColor=#333333;" vertex="1" parent="1">
          <mxGeometry x="80" y="1012" width="280" height="60" as="geometry" />
        </mxCell>
        <mxCell id="5CUBUq4CtGVq6OdzhweH-5" value="FOH" style="rhombus;whiteSpace=wrap;html=1;labelBackgroundColor=none;labelBorderColor=none;fillColor=#d5e8d4;strokeColor=#82b366;" vertex="1" parent="1">
          <mxGeometry x="80" y="1052" width="60" height="60" as="geometry" />
        </mxCell>
        <mxCell id="5CUBUq4CtGVq6OdzhweH-6" value="RCS" style="rhombus;whiteSpace=wrap;html=1;labelBackgroundColor=none;labelBorderColor=none;fillColor=#d5e8d4;strokeColor=#82b366;" vertex="1" parent="1">
          <mxGeometry x="140" y="1052" width="60" height="60" as="geometry" />
        </mxCell>
        <mxCell id="5CUBUq4CtGVq6OdzhweH-12" style="edgeStyle=orthogonalEdgeStyle;rounded=0;orthogonalLoop=1;jettySize=auto;html=1;entryX=0;entryY=0.5;entryDx=0;entryDy=0;exitX=0.027;exitY=0.987;exitDx=0;exitDy=0;exitPerimeter=0;startArrow=classic;startFill=1;strokeColor=#66B2FF;" edge="1" parent="1" source="5CUBUq4CtGVq6OdzhweH-14" target="5CUBUq4CtGVq6OdzhweH-16">
          <mxGeometry relative="1" as="geometry">
            <Array as="points">
              <mxPoint x="60" y="1430" />
            </Array>
          </mxGeometry>
        </mxCell>
        <mxCell id="5CUBUq4CtGVq6OdzhweH-13" style="edgeStyle=orthogonalEdgeStyle;rounded=0;orthogonalLoop=1;jettySize=auto;html=1;entryX=0;entryY=0.5;entryDx=0;entryDy=0;exitX=0.028;exitY=0.987;exitDx=0;exitDy=0;exitPerimeter=0;strokeColor=#66B2FF;" edge="1" parent="1" source="5CUBUq4CtGVq6OdzhweH-14" target="5CUBUq4CtGVq6OdzhweH-29">
          <mxGeometry relative="1" as="geometry">
            <Array as="points">
              <mxPoint x="60" y="1492" />
              <mxPoint x="60" y="1682" />
            </Array>
          </mxGeometry>
        </mxCell>
        <mxCell id="5CUBUq4CtGVq6OdzhweH-14" value="Shipment" style="whiteSpace=wrap;html=1;fontStyle=1;fillColor=#f5f5f5;strokeColor=#66B2FF;fontColor=#333333;" vertex="1" parent="1">
          <mxGeometry x="47" y="1170" width="480" height="57" as="geometry" />
        </mxCell>
        <mxCell id="5CUBUq4CtGVq6OdzhweH-15" style="edgeStyle=orthogonalEdgeStyle;rounded=0;orthogonalLoop=1;jettySize=auto;html=1;entryX=0;entryY=0.5;entryDx=0;entryDy=0;startArrow=classic;startFill=1;strokeColor=#66B2FF;" edge="1" parent="1" source="5CUBUq4CtGVq6OdzhweH-16" target="5CUBUq4CtGVq6OdzhweH-27">
          <mxGeometry relative="1" as="geometry" />
        </mxCell>
        <mxCell id="5CUBUq4CtGVq6OdzhweH-16" value="Piece #1" style="whiteSpace=wrap;html=1;fontStyle=1;fillColor=#f5f5f5;strokeColor=#66B2FF;fontColor=#333333;" vertex="1" parent="1">
          <mxGeometry x="90" y="1400" width="280" height="60" as="geometry" />
        </mxCell>
        <mxCell id="5CUBUq4CtGVq6OdzhweH-17" value="FOH" style="rhombus;whiteSpace=wrap;html=1;labelBackgroundColor=none;labelBorderColor=none;fillColor=#d5e8d4;strokeColor=#82b366;" vertex="1" parent="1">
          <mxGeometry x="90" y="1440" width="60" height="60" as="geometry" />
        </mxCell>
        <mxCell id="5CUBUq4CtGVq6OdzhweH-18" value="RCS" style="rhombus;whiteSpace=wrap;html=1;labelBackgroundColor=none;labelBorderColor=none;fillColor=#d5e8d4;strokeColor=#82b366;" vertex="1" parent="1">
          <mxGeometry x="150" y="1440" width="60" height="60" as="geometry" />
        </mxCell>
        <mxCell id="5CUBUq4CtGVq6OdzhweH-19" value="BKD" style="rhombus;whiteSpace=wrap;html=1;labelBackgroundColor=none;labelBorderColor=none;fillColor=#d5e8d4;strokeColor=#82b366;" vertex="1" parent="1">
          <mxGeometry x="74" y="1210" width="60" height="60" as="geometry" />
        </mxCell>
        <mxCell id="5CUBUq4CtGVq6OdzhweH-20" value="FOH" style="rhombus;whiteSpace=wrap;html=1;labelBackgroundColor=none;labelBorderColor=none;fillColor=#d5e8d4;strokeColor=#82b366;" vertex="1" parent="1">
          <mxGeometry x="134" y="1210" width="60" height="60" as="geometry" />
        </mxCell>
        <mxCell id="5CUBUq4CtGVq6OdzhweH-21" value="RCS" style="rhombus;whiteSpace=wrap;html=1;labelBackgroundColor=none;labelBorderColor=none;fillColor=#d5e8d4;strokeColor=#82b366;" vertex="1" parent="1">
          <mxGeometry x="194" y="1210" width="60" height="60" as="geometry" />
        </mxCell>
        <mxCell id="5CUBUq4CtGVq6OdzhweH-22" value="MAN #1" style="rhombus;whiteSpace=wrap;html=1;labelBackgroundColor=none;labelBorderColor=none;fillColor=#fff2cc;strokeColor=#d6b656;" vertex="1" parent="1">
          <mxGeometry x="254" y="1270" width="60" height="60" as="geometry" />
        </mxCell>
        <mxCell id="5CUBUq4CtGVq6OdzhweH-23" value="DEP #1" style="rhombus;whiteSpace=wrap;html=1;labelBackgroundColor=none;labelBorderColor=none;fillColor=#fff2cc;gradientDirection=east;strokeColor=#d6b656;" vertex="1" parent="1">
          <mxGeometry x="314" y="1270" width="60" height="60" as="geometry" />
        </mxCell>
        <mxCell id="5CUBUq4CtGVq6OdzhweH-24" value="MAN #1" style="rhombus;whiteSpace=wrap;html=1;labelBackgroundColor=none;labelBorderColor=none;fillColor=#d5e8d4;strokeColor=#82b366;" vertex="1" parent="1">
          <mxGeometry x="210" y="1440" width="60" height="60" as="geometry" />
        </mxCell>
        <mxCell id="5CUBUq4CtGVq6OdzhweH-25" value="DEP #1" style="rhombus;whiteSpace=wrap;html=1;labelBackgroundColor=none;labelBorderColor=none;fillColor=#d5e8d4;strokeColor=#82b366;" vertex="1" parent="1">
          <mxGeometry x="270" y="1440" width="60" height="60" as="geometry" />
        </mxCell>
        <mxCell id="5CUBUq4CtGVq6OdzhweH-26" style="edgeStyle=orthogonalEdgeStyle;rounded=0;orthogonalLoop=1;jettySize=auto;html=1;entryX=0;entryY=0.5;entryDx=0;entryDy=0;startArrow=classic;startFill=1;strokeColor=#66B2FF;" edge="1" parent="1" source="5CUBUq4CtGVq6OdzhweH-27" target="5CUBUq4CtGVq6OdzhweH-28">
          <mxGeometry relative="1" as="geometry">
            <mxPoint x="860" y="1430" as="targetPoint" />
          </mxGeometry>
        </mxCell>
        <mxCell id="5CUBUq4CtGVq6OdzhweH-27" value="Loading" style="whiteSpace=wrap;html=1;fontStyle=1;fillColor=#f5f5f5;strokeColor=#66B2FF;fontColor=#333333;" vertex="1" parent="1">
          <mxGeometry x="500" y="1400" width="280" height="60" as="geometry" />
        </mxCell>
        <mxCell id="5CUBUq4CtGVq6OdzhweH-35" style="edgeStyle=orthogonalEdgeStyle;rounded=0;orthogonalLoop=1;jettySize=auto;html=1;startArrow=classic;startFill=1;strokeColor=#66B2FF;" edge="1" parent="1" source="5CUBUq4CtGVq6OdzhweH-29" target="5CUBUq4CtGVq6OdzhweH-33">
          <mxGeometry relative="1" as="geometry" />
        </mxCell>
        <mxCell id="5CUBUq4CtGVq6OdzhweH-29" value="Piece #2" style="whiteSpace=wrap;html=1;fontStyle=1;fillColor=#f5f5f5;strokeColor=#66B2FF;fontColor=#333333;" vertex="1" parent="1">
          <mxGeometry x="90" y="1532" width="280" height="60" as="geometry" />
        </mxCell>
        <mxCell id="5CUBUq4CtGVq6OdzhweH-30" value="FOH" style="rhombus;whiteSpace=wrap;html=1;labelBackgroundColor=none;labelBorderColor=none;fillColor=#d5e8d4;strokeColor=#82b366;" vertex="1" parent="1">
          <mxGeometry x="90" y="1572" width="60" height="60" as="geometry" />
        </mxCell>
        <mxCell id="5CUBUq4CtGVq6OdzhweH-31" value="RCS" style="rhombus;whiteSpace=wrap;html=1;labelBackgroundColor=none;labelBorderColor=none;fillColor=#d5e8d4;strokeColor=#82b366;" vertex="1" parent="1">
          <mxGeometry x="150" y="1572" width="60" height="60" as="geometry" />
        </mxCell>
        <mxCell id="5CUBUq4CtGVq6OdzhweH-32" style="edgeStyle=orthogonalEdgeStyle;rounded=0;orthogonalLoop=1;jettySize=auto;html=1;entryX=0;entryY=0.5;entryDx=0;entryDy=0;startArrow=classic;startFill=1;strokeColor=#66B2FF;" edge="1" parent="1" source="5CUBUq4CtGVq6OdzhweH-33" target="5CUBUq4CtGVq6OdzhweH-34">
          <mxGeometry relative="1" as="geometry">
            <mxPoint x="860" y="1562" as="targetPoint" />
          </mxGeometry>
        </mxCell>
        <mxCell id="5CUBUq4CtGVq6OdzhweH-33" value="Loading" style="whiteSpace=wrap;html=1;fontStyle=1;fillColor=#f5f5f5;strokeColor=#66B2FF;fontColor=#333333;" vertex="1" parent="1">
          <mxGeometry x="500" y="1532" width="280" height="60" as="geometry" />
        </mxCell>
        <mxCell id="5CUBUq4CtGVq6OdzhweH-34" value="TransportMovement&lt;br&gt;LH404/17OCT2023 FRA-JFK" style="whiteSpace=wrap;html=1;fontStyle=1;fillColor=#f5f5f5;strokeColor=#66B2FF;fontColor=#333333;" vertex="1" parent="1">
          <mxGeometry x="860" y="1532" width="280" height="60" as="geometry" />
        </mxCell>
        <mxCell id="5CUBUq4CtGVq6OdzhweH-36" value="MAN #2" style="rhombus;whiteSpace=wrap;html=1;labelBackgroundColor=none;labelBorderColor=none;fillColor=#d5e8d4;strokeColor=#82b366;" vertex="1" parent="1">
          <mxGeometry x="210" y="1572" width="60" height="60" as="geometry" />
        </mxCell>
        <mxCell id="5CUBUq4CtGVq6OdzhweH-165" style="edgeStyle=orthogonalEdgeStyle;rounded=0;orthogonalLoop=1;jettySize=auto;html=1;entryX=0;entryY=0.5;entryDx=0;entryDy=0;exitX=0.028;exitY=1.047;exitDx=0;exitDy=0;exitPerimeter=0;strokeColor=#66B2FF;startArrow=classic;startFill=1;" edge="1" parent="1" source="5CUBUq4CtGVq6OdzhweH-39" target="5CUBUq4CtGVq6OdzhweH-41">
          <mxGeometry relative="1" as="geometry">
            <Array as="points">
              <mxPoint x="28" y="2332" />
            </Array>
          </mxGeometry>
        </mxCell>
        <mxCell id="5CUBUq4CtGVq6OdzhweH-39" value="Shipment" style="whiteSpace=wrap;html=1;fontStyle=1;fillColor=#f5f5f5;strokeColor=#66B2FF;fontColor=#333333;" vertex="1" parent="1">
          <mxGeometry x="10" y="2060" width="630" height="60" as="geometry" />
        </mxCell>
        <mxCell id="5CUBUq4CtGVq6OdzhweH-40" style="edgeStyle=orthogonalEdgeStyle;rounded=0;orthogonalLoop=1;jettySize=auto;html=1;entryX=0;entryY=0.5;entryDx=0;entryDy=0;startArrow=classic;startFill=1;strokeColor=#66B2FF;" edge="1" parent="1" source="5CUBUq4CtGVq6OdzhweH-41" target="5CUBUq4CtGVq6OdzhweH-52">
          <mxGeometry relative="1" as="geometry" />
        </mxCell>
        <mxCell id="5CUBUq4CtGVq6OdzhweH-42" value="FOH" style="rhombus;whiteSpace=wrap;html=1;labelBackgroundColor=none;labelBorderColor=none;fillColor=#d5e8d4;strokeColor=#82b366;" vertex="1" parent="1">
          <mxGeometry x="80" y="2342" width="60" height="60" as="geometry" />
        </mxCell>
        <mxCell id="5CUBUq4CtGVq6OdzhweH-43" value="RCS" style="rhombus;whiteSpace=wrap;html=1;labelBackgroundColor=none;labelBorderColor=none;fillColor=#d5e8d4;strokeColor=#82b366;" vertex="1" parent="1">
          <mxGeometry x="140" y="2342" width="60" height="60" as="geometry" />
        </mxCell>
        <mxCell id="5CUBUq4CtGVq6OdzhweH-44" value="BKD" style="rhombus;whiteSpace=wrap;html=1;labelBackgroundColor=none;labelBorderColor=none;fillColor=#d5e8d4;strokeColor=#82b366;" vertex="1" parent="1">
          <mxGeometry x="64" y="2102" width="60" height="60" as="geometry" />
        </mxCell>
        <mxCell id="5CUBUq4CtGVq6OdzhweH-45" value="FOH" style="rhombus;whiteSpace=wrap;html=1;labelBackgroundColor=none;labelBorderColor=none;fillColor=#d5e8d4;strokeColor=#82b366;" vertex="1" parent="1">
          <mxGeometry x="124" y="2102" width="60" height="60" as="geometry" />
        </mxCell>
        <mxCell id="5CUBUq4CtGVq6OdzhweH-46" value="RCS" style="rhombus;whiteSpace=wrap;html=1;labelBackgroundColor=none;labelBorderColor=none;fillColor=#d5e8d4;strokeColor=#82b366;" vertex="1" parent="1">
          <mxGeometry x="184" y="2102" width="60" height="60" as="geometry" />
        </mxCell>
        <mxCell id="5CUBUq4CtGVq6OdzhweH-47" value="MAN #1" style="rhombus;whiteSpace=wrap;html=1;labelBackgroundColor=none;labelBorderColor=none;fillColor=#fff2cc;gradientDirection=east;strokeColor=#d6b656;" vertex="1" parent="1">
          <mxGeometry x="244" y="2160" width="60" height="60" as="geometry" />
        </mxCell>
        <mxCell id="5CUBUq4CtGVq6OdzhweH-48" value="DEP #1" style="rhombus;whiteSpace=wrap;html=1;labelBackgroundColor=none;labelBorderColor=none;fillColor=#fff2cc;gradientDirection=east;strokeColor=#d6b656;" vertex="1" parent="1">
          <mxGeometry x="305" y="2160" width="60" height="60" as="geometry" />
        </mxCell>
        <mxCell id="5CUBUq4CtGVq6OdzhweH-49" value="MAN #1" style="rhombus;whiteSpace=wrap;html=1;labelBackgroundColor=none;labelBorderColor=none;fillColor=#d5e8d4;strokeColor=#82b366;" vertex="1" parent="1">
          <mxGeometry x="200" y="2342" width="60" height="60" as="geometry" />
        </mxCell>
        <mxCell id="5CUBUq4CtGVq6OdzhweH-50" value="DEP #1" style="rhombus;whiteSpace=wrap;html=1;labelBackgroundColor=none;labelBorderColor=none;fillColor=#d5e8d4;strokeColor=#82b366;" vertex="1" parent="1">
          <mxGeometry x="260" y="2342" width="60" height="60" as="geometry" />
        </mxCell>
        <mxCell id="5CUBUq4CtGVq6OdzhweH-51" style="edgeStyle=orthogonalEdgeStyle;rounded=0;orthogonalLoop=1;jettySize=auto;html=1;entryX=0;entryY=0.5;entryDx=0;entryDy=0;startArrow=classic;startFill=1;strokeColor=#66B2FF;" edge="1" parent="1" source="5CUBUq4CtGVq6OdzhweH-52" target="5CUBUq4CtGVq6OdzhweH-53">
          <mxGeometry relative="1" as="geometry">
            <mxPoint x="850" y="2332" as="targetPoint" />
          </mxGeometry>
        </mxCell>
        <mxCell id="5CUBUq4CtGVq6OdzhweH-52" value="Loading" style="whiteSpace=wrap;html=1;fontStyle=1;fillColor=#f5f5f5;strokeColor=#66B2FF;fontColor=#333333;" vertex="1" parent="1">
          <mxGeometry x="490" y="2302" width="280" height="60" as="geometry" />
        </mxCell>
        <mxCell id="5CUBUq4CtGVq6OdzhweH-53" value="TransportMovement&lt;br&gt;LH100/16OCT2023 FRA-MUC" style="whiteSpace=wrap;html=1;fontStyle=1;fillColor=#f5f5f5;strokeColor=#66B2FF;fontColor=#333333;" vertex="1" parent="1">
          <mxGeometry x="850" y="2302" width="280" height="60" as="geometry" />
        </mxCell>
        <mxCell id="5CUBUq4CtGVq6OdzhweH-57" value="Split Shipment with two pieces" style="text;html=1;strokeColor=none;fillColor=none;align=right;verticalAlign=middle;whiteSpace=wrap;rounded=0;fontSize=21;fontStyle=1" vertex="1" parent="1">
          <mxGeometry x="-640" y="1190" width="550" height="30" as="geometry" />
        </mxCell>
        <mxCell id="5CUBUq4CtGVq6OdzhweH-58" value="Shipment with two pieces different status" style="text;html=1;strokeColor=none;fillColor=none;align=right;verticalAlign=middle;whiteSpace=wrap;rounded=0;fontSize=21;fontStyle=1" vertex="1" parent="1">
          <mxGeometry x="-620" y="773" width="550" height="30" as="geometry" />
        </mxCell>
        <mxCell id="5CUBUq4CtGVq6OdzhweH-59" value="Shipment with one piece" style="text;html=1;strokeColor=none;fillColor=none;align=right;verticalAlign=middle;whiteSpace=wrap;rounded=0;fontSize=21;fontStyle=1" vertex="1" parent="1">
          <mxGeometry x="-640" y="200" width="550" height="30" as="geometry" />
        </mxCell>
        <mxCell id="5CUBUq4CtGVq6OdzhweH-60" value="Shipment with one piece with flight specific status" style="text;html=1;strokeColor=none;fillColor=none;align=right;verticalAlign=middle;whiteSpace=wrap;rounded=0;fontSize=21;fontStyle=1" vertex="1" parent="1">
          <mxGeometry x="-630" y="473" width="550" height="30" as="geometry" />
        </mxCell>
        <mxCell id="5CUBUq4CtGVq6OdzhweH-61" value="Transit Shipment with one piece" style="text;html=1;strokeColor=none;fillColor=none;align=right;verticalAlign=middle;whiteSpace=wrap;rounded=0;fontSize=21;fontStyle=1" vertex="1" parent="1">
          <mxGeometry x="-650" y="2075" width="550" height="30" as="geometry" />
        </mxCell>
        <mxCell id="5CUBUq4CtGVq6OdzhweH-68" style="edgeStyle=orthogonalEdgeStyle;rounded=0;orthogonalLoop=1;jettySize=auto;html=1;entryX=0;entryY=0.5;entryDx=0;entryDy=0;startArrow=classic;startFill=1;strokeColor=#66B2FF;" edge="1" parent="1" source="5CUBUq4CtGVq6OdzhweH-62" target="5CUBUq4CtGVq6OdzhweH-67">
          <mxGeometry relative="1" as="geometry" />
        </mxCell>
        <mxCell id="5CUBUq4CtGVq6OdzhweH-62" value="Loading" style="whiteSpace=wrap;html=1;fontStyle=1;fillColor=#f5f5f5;strokeColor=#66B2FF;fontColor=#333333;" vertex="1" parent="1">
          <mxGeometry x="490" y="2434" width="280" height="60" as="geometry" />
        </mxCell>
        <mxCell id="5CUBUq4CtGVq6OdzhweH-63" style="edgeStyle=orthogonalEdgeStyle;rounded=0;orthogonalLoop=1;jettySize=auto;html=1;entryX=0;entryY=0.5;entryDx=0;entryDy=0;startArrow=classic;startFill=1;exitX=1;exitY=0.5;exitDx=0;exitDy=0;strokeColor=#66B2FF;" edge="1" parent="1" source="5CUBUq4CtGVq6OdzhweH-41" target="5CUBUq4CtGVq6OdzhweH-62">
          <mxGeometry relative="1" as="geometry">
            <mxPoint x="370" y="2342" as="sourcePoint" />
            <mxPoint x="500" y="2342" as="targetPoint" />
          </mxGeometry>
        </mxCell>
        <mxCell id="5CUBUq4CtGVq6OdzhweH-64" value="ARR #1" style="rhombus;whiteSpace=wrap;html=1;labelBackgroundColor=none;labelBorderColor=none;fillColor=#d5e8d4;strokeColor=#82b366;" vertex="1" parent="1">
          <mxGeometry x="320" y="2342" width="60" height="60" as="geometry" />
        </mxCell>
        <mxCell id="5CUBUq4CtGVq6OdzhweH-65" value="MAN #2" style="rhombus;whiteSpace=wrap;html=1;labelBackgroundColor=none;labelBorderColor=none;fillColor=#d5e8d4;strokeColor=#82b366;" vertex="1" parent="1">
          <mxGeometry x="200" y="2402" width="60" height="60" as="geometry" />
        </mxCell>
        <mxCell id="5CUBUq4CtGVq6OdzhweH-67" value="TransportMovement&lt;br&gt;LH424/17OCT2023 MUC-BOS" style="whiteSpace=wrap;html=1;fontStyle=1;fillColor=#f5f5f5;strokeColor=#66B2FF;fontColor=#333333;" vertex="1" parent="1">
          <mxGeometry x="850" y="2434" width="280" height="60" as="geometry" />
        </mxCell>
        <mxCell id="5CUBUq4CtGVq6OdzhweH-69" value="MAN #1" style="rhombus;whiteSpace=wrap;html=1;labelBackgroundColor=none;labelBorderColor=none;fillColor=#d5e8d4;strokeColor=#82b366;" vertex="1" parent="1">
          <mxGeometry x="850" y="1442" width="60" height="60" as="geometry" />
        </mxCell>
        <mxCell id="5CUBUq4CtGVq6OdzhweH-70" value="DEP #1" style="rhombus;whiteSpace=wrap;html=1;labelBackgroundColor=none;labelBorderColor=none;fillColor=#d5e8d4;strokeColor=#82b366;" vertex="1" parent="1">
          <mxGeometry x="910" y="1442" width="60" height="60" as="geometry" />
        </mxCell>
        <mxCell id="5CUBUq4CtGVq6OdzhweH-71" value="MAN #2" style="rhombus;whiteSpace=wrap;html=1;labelBackgroundColor=none;labelBorderColor=none;fillColor=#d5e8d4;strokeColor=#82b366;" vertex="1" parent="1">
          <mxGeometry x="850" y="1572" width="60" height="60" as="geometry" />
        </mxCell>
        <mxCell id="5CUBUq4CtGVq6OdzhweH-72" value="MAN #1" style="rhombus;whiteSpace=wrap;html=1;labelBackgroundColor=none;labelBorderColor=none;fillColor=#d5e8d4;strokeColor=#82b366;" vertex="1" parent="1">
          <mxGeometry x="840" y="2350" width="60" height="60" as="geometry" />
        </mxCell>
        <mxCell id="5CUBUq4CtGVq6OdzhweH-73" value="DEP #1" style="rhombus;whiteSpace=wrap;html=1;labelBackgroundColor=none;labelBorderColor=none;fillColor=#d5e8d4;strokeColor=#82b366;" vertex="1" parent="1">
          <mxGeometry x="900" y="2350" width="60" height="60" as="geometry" />
        </mxCell>
        <mxCell id="5CUBUq4CtGVq6OdzhweH-74" value="ARR #1" style="rhombus;whiteSpace=wrap;html=1;labelBackgroundColor=none;labelBorderColor=none;fillColor=#d5e8d4;strokeColor=#82b366;" vertex="1" parent="1">
          <mxGeometry x="960" y="2350" width="60" height="60" as="geometry" />
        </mxCell>
        <mxCell id="5CUBUq4CtGVq6OdzhweH-75" value="MAN #2" style="rhombus;whiteSpace=wrap;html=1;labelBackgroundColor=none;labelBorderColor=none;fillColor=#d5e8d4;strokeColor=#82b366;" vertex="1" parent="1">
          <mxGeometry x="840" y="2480" width="60" height="60" as="geometry" />
        </mxCell>
        <mxCell id="5CUBUq4CtGVq6OdzhweH-77" value="MAN" style="rhombus;whiteSpace=wrap;html=1;labelBackgroundColor=none;labelBorderColor=none;fillColor=#d5e8d4;strokeColor=#82b366;" vertex="1" parent="1">
          <mxGeometry x="850" y="930" width="60" height="60" as="geometry" />
        </mxCell>
        <mxCell id="5CUBUq4CtGVq6OdzhweH-78" value="DEP" style="rhombus;whiteSpace=wrap;html=1;labelBackgroundColor=none;labelBorderColor=none;fillColor=#d5e8d4;strokeColor=#82b366;" vertex="1" parent="1">
          <mxGeometry x="910" y="930" width="60" height="60" as="geometry" />
        </mxCell>
        <mxCell id="5CUBUq4CtGVq6OdzhweH-79" value="MAN" style="rhombus;whiteSpace=wrap;html=1;labelBackgroundColor=none;labelBorderColor=none;fillColor=#d5e8d4;strokeColor=#82b366;" vertex="1" parent="1">
          <mxGeometry x="850" y="630" width="60" height="60" as="geometry" />
        </mxCell>
        <mxCell id="5CUBUq4CtGVq6OdzhweH-80" value="DEP" style="rhombus;whiteSpace=wrap;html=1;labelBackgroundColor=none;labelBorderColor=none;fillColor=#d5e8d4;strokeColor=#82b366;" vertex="1" parent="1">
          <mxGeometry x="910" y="630" width="60" height="60" as="geometry" />
        </mxCell>
        <mxCell id="5CUBUq4CtGVq6OdzhweH-81" value="ARR #1" style="rhombus;whiteSpace=wrap;html=1;labelBackgroundColor=none;labelBorderColor=none;fillColor=#fff2cc;strokeColor=#d6b656;" vertex="1" parent="1">
          <mxGeometry x="364" y="2160" width="60" height="60" as="geometry" />
        </mxCell>
        <mxCell id="5CUBUq4CtGVq6OdzhweH-82" value="MAN #2" style="rhombus;whiteSpace=wrap;html=1;labelBackgroundColor=none;labelBorderColor=none;fillColor=#fff2cc;strokeColor=#d6b656;" vertex="1" parent="1">
          <mxGeometry x="244" y="2220" width="60" height="60" as="geometry" />
        </mxCell>
        <mxCell id="5CUBUq4CtGVq6OdzhweH-109" value="MAN #2" style="rhombus;whiteSpace=wrap;html=1;labelBackgroundColor=none;labelBorderColor=none;fillColor=#fff2cc;strokeColor=#d6b656;" vertex="1" parent="1">
          <mxGeometry x="254" y="1330" width="60" height="60" as="geometry" />
        </mxCell>
        <mxCell id="5CUBUq4CtGVq6OdzhweH-110" value="MAN" style="rhombus;whiteSpace=wrap;html=1;labelBackgroundColor=none;labelBorderColor=none;fillColor=#d5e8d4;gradientDirection=east;strokeColor=#82b366;" vertex="1" parent="1">
          <mxGeometry x="254" y="1210" width="60" height="60" as="geometry" />
        </mxCell>
        <mxCell id="5CUBUq4CtGVq6OdzhweH-112" value="" style="whiteSpace=wrap;html=1;fontStyle=1;fillColor=none;strokeColor=none;fontColor=none;noLabel=1;" vertex="1" parent="1">
          <mxGeometry x="850" y="310" width="280" height="60" as="geometry" />
        </mxCell>
        <mxCell id="5CUBUq4CtGVq6OdzhweH-149" style="edgeStyle=orthogonalEdgeStyle;rounded=0;orthogonalLoop=1;jettySize=auto;html=1;entryX=0;entryY=0.5;entryDx=0;entryDy=0;exitX=0.03;exitY=1.027;exitDx=0;exitDy=0;exitPerimeter=0;startArrow=classic;startFill=1;strokeColor=#66B2FF;" edge="1" parent="1" source="5CUBUq4CtGVq6OdzhweH-114" target="5CUBUq4CtGVq6OdzhweH-116">
          <mxGeometry relative="1" as="geometry">
            <Array as="points">
              <mxPoint x="39" y="2990" />
            </Array>
          </mxGeometry>
        </mxCell>
        <mxCell id="5CUBUq4CtGVq6OdzhweH-150" style="edgeStyle=orthogonalEdgeStyle;rounded=0;orthogonalLoop=1;jettySize=auto;html=1;entryX=0;entryY=0.5;entryDx=0;entryDy=0;startArrow=classic;startFill=1;strokeColor=#66B2FF;" edge="1" parent="1" source="5CUBUq4CtGVq6OdzhweH-114" target="5CUBUq4CtGVq6OdzhweH-145">
          <mxGeometry relative="1" as="geometry">
            <Array as="points">
              <mxPoint x="40" y="3300" />
            </Array>
          </mxGeometry>
        </mxCell>
        <mxCell id="5CUBUq4CtGVq6OdzhweH-114" value="Shipment" style="whiteSpace=wrap;html=1;fontStyle=1;fillColor=#f5f5f5;strokeColor=#66B2FF;fontColor=#333333;" vertex="1" parent="1">
          <mxGeometry x="20" y="2600" width="630" height="60" as="geometry" />
        </mxCell>
        <mxCell id="5CUBUq4CtGVq6OdzhweH-115" style="edgeStyle=orthogonalEdgeStyle;rounded=0;orthogonalLoop=1;jettySize=auto;html=1;entryX=0;entryY=0.5;entryDx=0;entryDy=0;startArrow=classic;startFill=1;strokeColor=#66B2FF;" edge="1" parent="1" source="5CUBUq4CtGVq6OdzhweH-116" target="5CUBUq4CtGVq6OdzhweH-127">
          <mxGeometry relative="1" as="geometry" />
        </mxCell>
        <mxCell id="5CUBUq4CtGVq6OdzhweH-116" value="Piece #1" style="whiteSpace=wrap;html=1;fontStyle=1;fillColor=#f5f5f5;strokeColor=#66B2FF;fontColor=#333333;" vertex="1" parent="1">
          <mxGeometry x="90" y="2960" width="280" height="60" as="geometry" />
        </mxCell>
        <mxCell id="5CUBUq4CtGVq6OdzhweH-117" value="FOH" style="rhombus;whiteSpace=wrap;html=1;labelBackgroundColor=none;labelBorderColor=none;fillColor=#d5e8d4;strokeColor=#82b366;" vertex="1" parent="1">
          <mxGeometry x="90" y="3000" width="60" height="60" as="geometry" />
        </mxCell>
        <mxCell id="5CUBUq4CtGVq6OdzhweH-118" value="RCS" style="rhombus;whiteSpace=wrap;html=1;labelBackgroundColor=none;labelBorderColor=none;fillColor=#d5e8d4;strokeColor=#82b366;" vertex="1" parent="1">
          <mxGeometry x="150" y="3000" width="60" height="60" as="geometry" />
        </mxCell>
        <mxCell id="5CUBUq4CtGVq6OdzhweH-119" value="BKD" style="rhombus;whiteSpace=wrap;html=1;labelBackgroundColor=none;labelBorderColor=none;fillColor=#d5e8d4;strokeColor=#82b366;" vertex="1" parent="1">
          <mxGeometry x="74" y="2642" width="60" height="60" as="geometry" />
        </mxCell>
        <mxCell id="5CUBUq4CtGVq6OdzhweH-120" value="FOH" style="rhombus;whiteSpace=wrap;html=1;labelBackgroundColor=none;labelBorderColor=none;fillColor=#d5e8d4;strokeColor=#82b366;" vertex="1" parent="1">
          <mxGeometry x="134" y="2642" width="60" height="60" as="geometry" />
        </mxCell>
        <mxCell id="5CUBUq4CtGVq6OdzhweH-121" value="RCS" style="rhombus;whiteSpace=wrap;html=1;labelBackgroundColor=none;labelBorderColor=none;fillColor=#d5e8d4;strokeColor=#82b366;" vertex="1" parent="1">
          <mxGeometry x="194" y="2642" width="60" height="60" as="geometry" />
        </mxCell>
        <mxCell id="5CUBUq4CtGVq6OdzhweH-122" value="MAN" style="rhombus;whiteSpace=wrap;html=1;labelBackgroundColor=none;labelBorderColor=none;fillColor=#d5e8d4;gradientDirection=east;strokeColor=#82b366;" vertex="1" parent="1">
          <mxGeometry x="254" y="2642" width="60" height="60" as="geometry" />
        </mxCell>
        <mxCell id="5CUBUq4CtGVq6OdzhweH-123" value="DEP" style="rhombus;whiteSpace=wrap;html=1;labelBackgroundColor=none;labelBorderColor=none;fillColor=#d5e8d4;gradientDirection=east;strokeColor=#82b366;" vertex="1" parent="1">
          <mxGeometry x="314" y="2642" width="60" height="60" as="geometry" />
        </mxCell>
        <mxCell id="5CUBUq4CtGVq6OdzhweH-124" value="MAN #1" style="rhombus;whiteSpace=wrap;html=1;labelBackgroundColor=none;labelBorderColor=none;fillColor=#d5e8d4;strokeColor=#82b366;" vertex="1" parent="1">
          <mxGeometry x="210" y="3000" width="60" height="60" as="geometry" />
        </mxCell>
        <mxCell id="5CUBUq4CtGVq6OdzhweH-125" value="DEP #1" style="rhombus;whiteSpace=wrap;html=1;labelBackgroundColor=none;labelBorderColor=none;fillColor=#d5e8d4;strokeColor=#82b366;" vertex="1" parent="1">
          <mxGeometry x="270" y="3000" width="60" height="60" as="geometry" />
        </mxCell>
        <mxCell id="5CUBUq4CtGVq6OdzhweH-126" style="edgeStyle=orthogonalEdgeStyle;rounded=0;orthogonalLoop=1;jettySize=auto;html=1;entryX=0;entryY=0.5;entryDx=0;entryDy=0;startArrow=classic;startFill=1;strokeColor=#66B2FF;" edge="1" parent="1" source="5CUBUq4CtGVq6OdzhweH-127" target="5CUBUq4CtGVq6OdzhweH-128">
          <mxGeometry relative="1" as="geometry">
            <mxPoint x="860" y="2990" as="targetPoint" />
          </mxGeometry>
        </mxCell>
        <mxCell id="5CUBUq4CtGVq6OdzhweH-127" value="Loading" style="whiteSpace=wrap;html=1;fontStyle=1;fillColor=#f5f5f5;strokeColor=#66B2FF;fontColor=#333333;" vertex="1" parent="1">
          <mxGeometry x="500" y="2960" width="280" height="60" as="geometry" />
        </mxCell>
        <mxCell id="5CUBUq4CtGVq6OdzhweH-128" value="TransportMovement&lt;br&gt;LH100/16OCT2023 FRA-MUC" style="whiteSpace=wrap;html=1;fontStyle=1;fillColor=#f5f5f5;strokeColor=#66B2FF;fontColor=#333333;" vertex="1" parent="1">
          <mxGeometry x="860" y="2960" width="280" height="60" as="geometry" />
        </mxCell>
        <mxCell id="5CUBUq4CtGVq6OdzhweH-129" style="edgeStyle=orthogonalEdgeStyle;rounded=0;orthogonalLoop=1;jettySize=auto;html=1;entryX=0;entryY=0.5;entryDx=0;entryDy=0;startArrow=classic;startFill=1;strokeColor=#66B2FF;" edge="1" parent="1" source="5CUBUq4CtGVq6OdzhweH-130" target="5CUBUq4CtGVq6OdzhweH-135">
          <mxGeometry relative="1" as="geometry" />
        </mxCell>
        <mxCell id="5CUBUq4CtGVq6OdzhweH-130" value="Loading" style="whiteSpace=wrap;html=1;fontStyle=1;fillColor=#f5f5f5;strokeColor=#66B2FF;fontColor=#333333;" vertex="1" parent="1">
          <mxGeometry x="500" y="3092" width="280" height="60" as="geometry" />
        </mxCell>
        <mxCell id="5CUBUq4CtGVq6OdzhweH-131" style="edgeStyle=orthogonalEdgeStyle;rounded=0;orthogonalLoop=1;jettySize=auto;html=1;entryX=0;entryY=0.5;entryDx=0;entryDy=0;startArrow=classic;startFill=1;exitX=1;exitY=0.5;exitDx=0;exitDy=0;strokeColor=#66B2FF;" edge="1" parent="1" source="5CUBUq4CtGVq6OdzhweH-116" target="5CUBUq4CtGVq6OdzhweH-130">
          <mxGeometry relative="1" as="geometry">
            <mxPoint x="380" y="3000" as="sourcePoint" />
            <mxPoint x="510" y="3000" as="targetPoint" />
          </mxGeometry>
        </mxCell>
        <mxCell id="5CUBUq4CtGVq6OdzhweH-132" value="ARR #1" style="rhombus;whiteSpace=wrap;html=1;labelBackgroundColor=none;labelBorderColor=none;fillColor=#d5e8d4;strokeColor=#82b366;" vertex="1" parent="1">
          <mxGeometry x="330" y="3000" width="60" height="60" as="geometry" />
        </mxCell>
        <mxCell id="5CUBUq4CtGVq6OdzhweH-133" value="MAN #2" style="rhombus;whiteSpace=wrap;html=1;labelBackgroundColor=none;labelBorderColor=none;fillColor=#d5e8d4;strokeColor=#82b366;" vertex="1" parent="1">
          <mxGeometry x="210" y="3060" width="60" height="60" as="geometry" />
        </mxCell>
        <mxCell id="5CUBUq4CtGVq6OdzhweH-135" value="TransportMovement&lt;br&gt;LH424/17OCT2023 MUC-BOS" style="whiteSpace=wrap;html=1;fontStyle=1;fillColor=#f5f5f5;strokeColor=#66B2FF;fontColor=#333333;" vertex="1" parent="1">
          <mxGeometry x="860" y="3092" width="280" height="60" as="geometry" />
        </mxCell>
        <mxCell id="5CUBUq4CtGVq6OdzhweH-136" value="MAN #1" style="rhombus;whiteSpace=wrap;html=1;labelBackgroundColor=none;labelBorderColor=none;fillColor=#d5e8d4;strokeColor=#82b366;" vertex="1" parent="1">
          <mxGeometry x="850" y="3008" width="60" height="60" as="geometry" />
        </mxCell>
        <mxCell id="5CUBUq4CtGVq6OdzhweH-137" value="DEP #1" style="rhombus;whiteSpace=wrap;html=1;labelBackgroundColor=none;labelBorderColor=none;fillColor=#d5e8d4;strokeColor=#82b366;" vertex="1" parent="1">
          <mxGeometry x="910" y="3008" width="60" height="60" as="geometry" />
        </mxCell>
        <mxCell id="5CUBUq4CtGVq6OdzhweH-138" value="ARR #1" style="rhombus;whiteSpace=wrap;html=1;labelBackgroundColor=none;labelBorderColor=none;fillColor=#d5e8d4;strokeColor=#82b366;" vertex="1" parent="1">
          <mxGeometry x="970" y="3008" width="60" height="60" as="geometry" />
        </mxCell>
        <mxCell id="5CUBUq4CtGVq6OdzhweH-139" value="MAN #2" style="rhombus;whiteSpace=wrap;html=1;labelBackgroundColor=none;labelBorderColor=none;fillColor=#d5e8d4;strokeColor=#82b366;" vertex="1" parent="1">
          <mxGeometry x="850" y="3138" width="60" height="60" as="geometry" />
        </mxCell>
        <mxCell id="5CUBUq4CtGVq6OdzhweH-144" value="Split Transit Shipment with two pieces" style="text;html=1;strokeColor=none;fillColor=none;align=right;verticalAlign=middle;whiteSpace=wrap;rounded=0;fontSize=21;fontStyle=1" vertex="1" parent="1">
          <mxGeometry x="-640" y="2610" width="550" height="30" as="geometry" />
        </mxCell>
        <mxCell id="5CUBUq4CtGVq6OdzhweH-162" style="edgeStyle=orthogonalEdgeStyle;rounded=0;orthogonalLoop=1;jettySize=auto;html=1;entryX=0;entryY=0.5;entryDx=0;entryDy=0;startArrow=classic;startFill=1;strokeColor=#66B2FF;" edge="1" parent="1" source="5CUBUq4CtGVq6OdzhweH-145" target="5CUBUq4CtGVq6OdzhweH-152">
          <mxGeometry relative="1" as="geometry" />
        </mxCell>
        <mxCell id="5CUBUq4CtGVq6OdzhweH-145" value="Piece #2" style="whiteSpace=wrap;html=1;fontStyle=1;fillColor=#f5f5f5;strokeColor=#66B2FF;fontColor=#333333;" vertex="1" parent="1">
          <mxGeometry x="90" y="3270" width="280" height="60" as="geometry" />
        </mxCell>
        <mxCell id="5CUBUq4CtGVq6OdzhweH-151" style="edgeStyle=orthogonalEdgeStyle;rounded=0;orthogonalLoop=1;jettySize=auto;html=1;entryX=0;entryY=0.5;entryDx=0;entryDy=0;startArrow=classic;startFill=1;strokeColor=#66B2FF;" edge="1" parent="1" source="5CUBUq4CtGVq6OdzhweH-152" target="5CUBUq4CtGVq6OdzhweH-153">
          <mxGeometry relative="1" as="geometry">
            <mxPoint x="860" y="3300" as="targetPoint" />
          </mxGeometry>
        </mxCell>
        <mxCell id="5CUBUq4CtGVq6OdzhweH-152" value="Loading" style="whiteSpace=wrap;html=1;fontStyle=1;fillColor=#f5f5f5;strokeColor=#66B2FF;fontColor=#333333;" vertex="1" parent="1">
          <mxGeometry x="500" y="3270" width="280" height="60" as="geometry" />
        </mxCell>
        <mxCell id="5CUBUq4CtGVq6OdzhweH-153" value="TransportMovement&lt;br&gt;LH123/16OCT2023 FRA-HAM" style="whiteSpace=wrap;html=1;fontStyle=1;fillColor=#f5f5f5;strokeColor=#66B2FF;fontColor=#333333;" vertex="1" parent="1">
          <mxGeometry x="860" y="3270" width="280" height="60" as="geometry" />
        </mxCell>
        <mxCell id="5CUBUq4CtGVq6OdzhweH-154" style="edgeStyle=orthogonalEdgeStyle;rounded=0;orthogonalLoop=1;jettySize=auto;html=1;entryX=0;entryY=0.5;entryDx=0;entryDy=0;startArrow=classic;startFill=1;strokeColor=#66B2FF;" edge="1" parent="1" source="5CUBUq4CtGVq6OdzhweH-155" target="5CUBUq4CtGVq6OdzhweH-156">
          <mxGeometry relative="1" as="geometry" />
        </mxCell>
        <mxCell id="5CUBUq4CtGVq6OdzhweH-155" value="Loading" style="whiteSpace=wrap;html=1;fontStyle=1;fillColor=#f5f5f5;strokeColor=#66B2FF;fontColor=#333333;" vertex="1" parent="1">
          <mxGeometry x="500" y="3402" width="280" height="60" as="geometry" />
        </mxCell>
        <mxCell id="5CUBUq4CtGVq6OdzhweH-156" value="TransportMovement&lt;br&gt;LH345/17OCT2023 HAM-BOS" style="whiteSpace=wrap;html=1;fontStyle=1;fillColor=#f5f5f5;strokeColor=#66B2FF;fontColor=#333333;" vertex="1" parent="1">
          <mxGeometry x="860" y="3402" width="280" height="60" as="geometry" />
        </mxCell>
        <mxCell id="5CUBUq4CtGVq6OdzhweH-157" value="MAN #3" style="rhombus;whiteSpace=wrap;html=1;labelBackgroundColor=none;labelBorderColor=none;fillColor=#d5e8d4;strokeColor=#82b366;" vertex="1" parent="1">
          <mxGeometry x="850" y="3318" width="60" height="60" as="geometry" />
        </mxCell>
        <mxCell id="5CUBUq4CtGVq6OdzhweH-158" value="DEP #3" style="rhombus;whiteSpace=wrap;html=1;labelBackgroundColor=none;labelBorderColor=none;fillColor=#d5e8d4;strokeColor=#82b366;" vertex="1" parent="1">
          <mxGeometry x="910" y="3318" width="60" height="60" as="geometry" />
        </mxCell>
        <mxCell id="5CUBUq4CtGVq6OdzhweH-160" value="MAN #4" style="rhombus;whiteSpace=wrap;html=1;labelBackgroundColor=none;labelBorderColor=none;fillColor=#d5e8d4;strokeColor=#82b366;" vertex="1" parent="1">
          <mxGeometry x="850" y="3448" width="60" height="60" as="geometry" />
        </mxCell>
        <mxCell id="5CUBUq4CtGVq6OdzhweH-163" value="MAN" style="rhombus;whiteSpace=wrap;html=1;labelBackgroundColor=none;labelBorderColor=none;fillColor=#d5e8d4;strokeColor=#82b366;" vertex="1" parent="1">
          <mxGeometry x="244" y="2100" width="60" height="60" as="geometry" />
        </mxCell>
        <mxCell id="5CUBUq4CtGVq6OdzhweH-166" value="DEP" style="rhombus;whiteSpace=wrap;html=1;labelBackgroundColor=none;labelBorderColor=none;fillColor=#d5e8d4;strokeColor=#82b366;" vertex="1" parent="1">
          <mxGeometry x="305" y="2100" width="60" height="60" as="geometry" />
        </mxCell>
        <mxCell id="5CUBUq4CtGVq6OdzhweH-167" value="Piece #1" style="whiteSpace=wrap;html=1;fontStyle=1;fillColor=#f5f5f5;strokeColor=#66B2FF;fontColor=#333333;" vertex="1" parent="1">
          <mxGeometry x="1500" y="2302" width="280" height="60" as="geometry" />
        </mxCell>
        <mxCell id="5CUBUq4CtGVq6OdzhweH-168" style="edgeStyle=orthogonalEdgeStyle;rounded=0;orthogonalLoop=1;jettySize=auto;html=1;entryX=0;entryY=0.5;entryDx=0;entryDy=0;exitX=0.028;exitY=1.047;exitDx=0;exitDy=0;exitPerimeter=0;strokeColor=#66B2FF;startArrow=classic;startFill=1;" edge="1" parent="1" source="5CUBUq4CtGVq6OdzhweH-169" target="5CUBUq4CtGVq6OdzhweH-167">
          <mxGeometry relative="1" as="geometry">
            <Array as="points">
              <mxPoint x="1448" y="2332" />
            </Array>
          </mxGeometry>
        </mxCell>
        <mxCell id="5CUBUq4CtGVq6OdzhweH-169" value="Shipment (FRA-MUC-BOS)" style="whiteSpace=wrap;html=1;fontStyle=1;fillColor=#f5f5f5;strokeColor=#66B2FF;fontColor=#333333;" vertex="1" parent="1">
          <mxGeometry x="1430" y="2060" width="630" height="60" as="geometry" />
        </mxCell>
        <mxCell id="5CUBUq4CtGVq6OdzhweH-170" style="edgeStyle=orthogonalEdgeStyle;rounded=0;orthogonalLoop=1;jettySize=auto;html=1;entryX=0;entryY=0.5;entryDx=0;entryDy=0;startArrow=classic;startFill=1;strokeColor=#66B2FF;" edge="1" parent="1" source="5CUBUq4CtGVq6OdzhweH-167" target="5CUBUq4CtGVq6OdzhweH-181">
          <mxGeometry relative="1" as="geometry" />
        </mxCell>
        <mxCell id="5CUBUq4CtGVq6OdzhweH-171" value="FOH" style="rhombus;whiteSpace=wrap;html=1;labelBackgroundColor=none;labelBorderColor=none;fillColor=#d5e8d4;strokeColor=#82b366;" vertex="1" parent="1">
          <mxGeometry x="1500" y="2342" width="60" height="60" as="geometry" />
        </mxCell>
        <mxCell id="5CUBUq4CtGVq6OdzhweH-172" value="RCS" style="rhombus;whiteSpace=wrap;html=1;labelBackgroundColor=none;labelBorderColor=none;fillColor=#d5e8d4;strokeColor=#82b366;" vertex="1" parent="1">
          <mxGeometry x="1560" y="2342" width="60" height="60" as="geometry" />
        </mxCell>
        <mxCell id="5CUBUq4CtGVq6OdzhweH-173" value="BKD" style="rhombus;whiteSpace=wrap;html=1;labelBackgroundColor=none;labelBorderColor=none;fillColor=#d5e8d4;strokeColor=#82b366;" vertex="1" parent="1">
          <mxGeometry x="1484" y="2102" width="60" height="60" as="geometry" />
        </mxCell>
        <mxCell id="5CUBUq4CtGVq6OdzhweH-174" value="FOH" style="rhombus;whiteSpace=wrap;html=1;labelBackgroundColor=none;labelBorderColor=none;fillColor=#d5e8d4;strokeColor=#82b366;" vertex="1" parent="1">
          <mxGeometry x="1544" y="2102" width="60" height="60" as="geometry" />
        </mxCell>
        <mxCell id="5CUBUq4CtGVq6OdzhweH-175" value="RCS" style="rhombus;whiteSpace=wrap;html=1;labelBackgroundColor=none;labelBorderColor=none;fillColor=#d5e8d4;strokeColor=#82b366;" vertex="1" parent="1">
          <mxGeometry x="1604" y="2102" width="60" height="60" as="geometry" />
        </mxCell>
        <mxCell id="5CUBUq4CtGVq6OdzhweH-176" value="MAN #1" style="rhombus;whiteSpace=wrap;html=1;labelBackgroundColor=none;labelBorderColor=none;fillColor=#fff2cc;gradientDirection=east;strokeColor=#d6b656;" vertex="1" parent="1">
          <mxGeometry x="1664" y="2160" width="60" height="60" as="geometry" />
        </mxCell>
        <mxCell id="5CUBUq4CtGVq6OdzhweH-177" value="DEP #1" style="rhombus;whiteSpace=wrap;html=1;labelBackgroundColor=none;labelBorderColor=none;fillColor=#fff2cc;gradientDirection=east;strokeColor=#d6b656;" vertex="1" parent="1">
          <mxGeometry x="1725" y="2160" width="60" height="60" as="geometry" />
        </mxCell>
        <mxCell id="5CUBUq4CtGVq6OdzhweH-178" value="MAN #1" style="rhombus;whiteSpace=wrap;html=1;labelBackgroundColor=none;labelBorderColor=none;fillColor=#d5e8d4;strokeColor=#82b366;" vertex="1" parent="1">
          <mxGeometry x="1620" y="2342" width="60" height="60" as="geometry" />
        </mxCell>
        <mxCell id="5CUBUq4CtGVq6OdzhweH-179" value="DEP #1" style="rhombus;whiteSpace=wrap;html=1;labelBackgroundColor=none;labelBorderColor=none;fillColor=#d5e8d4;strokeColor=#82b366;" vertex="1" parent="1">
          <mxGeometry x="1680" y="2342" width="60" height="60" as="geometry" />
        </mxCell>
        <mxCell id="5CUBUq4CtGVq6OdzhweH-180" style="edgeStyle=orthogonalEdgeStyle;rounded=0;orthogonalLoop=1;jettySize=auto;html=1;entryX=0;entryY=0.5;entryDx=0;entryDy=0;startArrow=classic;startFill=1;strokeColor=#66B2FF;" edge="1" parent="1" source="5CUBUq4CtGVq6OdzhweH-181" target="5CUBUq4CtGVq6OdzhweH-182">
          <mxGeometry relative="1" as="geometry">
            <mxPoint x="2270" y="2332" as="targetPoint" />
          </mxGeometry>
        </mxCell>
        <mxCell id="5CUBUq4CtGVq6OdzhweH-181" value="Loading" style="whiteSpace=wrap;html=1;fontStyle=1;fillColor=#f5f5f5;strokeColor=#66B2FF;fontColor=#333333;" vertex="1" parent="1">
          <mxGeometry x="1910" y="2302" width="280" height="60" as="geometry" />
        </mxCell>
        <mxCell id="5CUBUq4CtGVq6OdzhweH-182" value="TransportMovement&lt;br&gt;LH100/16OCT2023 FRA-MUC" style="whiteSpace=wrap;html=1;fontStyle=1;fillColor=#f5f5f5;strokeColor=#66B2FF;fontColor=#333333;" vertex="1" parent="1">
          <mxGeometry x="2270" y="2302" width="280" height="60" as="geometry" />
        </mxCell>
        <mxCell id="5CUBUq4CtGVq6OdzhweH-186" value="ARR #1" style="rhombus;whiteSpace=wrap;html=1;labelBackgroundColor=none;labelBorderColor=none;fillColor=#d5e8d4;strokeColor=#82b366;" vertex="1" parent="1">
          <mxGeometry x="1740" y="2342" width="60" height="60" as="geometry" />
        </mxCell>
        <mxCell id="5CUBUq4CtGVq6OdzhweH-189" value="MAN #1" style="rhombus;whiteSpace=wrap;html=1;labelBackgroundColor=none;labelBorderColor=none;fillColor=#d5e8d4;strokeColor=#82b366;" vertex="1" parent="1">
          <mxGeometry x="2260" y="2350" width="60" height="60" as="geometry" />
        </mxCell>
        <mxCell id="5CUBUq4CtGVq6OdzhweH-190" value="DEP #1" style="rhombus;whiteSpace=wrap;html=1;labelBackgroundColor=none;labelBorderColor=none;fillColor=#d5e8d4;strokeColor=#82b366;" vertex="1" parent="1">
          <mxGeometry x="2320" y="2350" width="60" height="60" as="geometry" />
        </mxCell>
        <mxCell id="5CUBUq4CtGVq6OdzhweH-191" value="ARR #1" style="rhombus;whiteSpace=wrap;html=1;labelBackgroundColor=none;labelBorderColor=none;fillColor=#d5e8d4;strokeColor=#82b366;" vertex="1" parent="1">
          <mxGeometry x="2380" y="2350" width="60" height="60" as="geometry" />
        </mxCell>
        <mxCell id="5CUBUq4CtGVq6OdzhweH-193" value="ARR #1" style="rhombus;whiteSpace=wrap;html=1;labelBackgroundColor=none;labelBorderColor=none;fillColor=#fff2cc;strokeColor=#d6b656;" vertex="1" parent="1">
          <mxGeometry x="1784" y="2160" width="60" height="60" as="geometry" />
        </mxCell>
        <mxCell id="5CUBUq4CtGVq6OdzhweH-196" value="DEP" style="rhombus;whiteSpace=wrap;html=1;labelBackgroundColor=none;labelBorderColor=none;fillColor=#d5e8d4;strokeColor=#82b366;" vertex="1" parent="1">
          <mxGeometry x="1725" y="2100" width="60" height="60" as="geometry" />
        </mxCell>
        <mxCell id="5CUBUq4CtGVq6OdzhweH-197" value="MAN #1" style="rhombus;whiteSpace=wrap;html=1;labelBackgroundColor=none;labelBorderColor=none;fillColor=#fff2cc;gradientDirection=east;strokeColor=#d6b656;" vertex="1" parent="1">
          <mxGeometry x="254" y="2702" width="60" height="60" as="geometry" />
        </mxCell>
        <mxCell id="5CUBUq4CtGVq6OdzhweH-198" value="MAN #2" style="rhombus;whiteSpace=wrap;html=1;labelBackgroundColor=none;labelBorderColor=none;fillColor=#fff2cc;gradientDirection=east;strokeColor=#d6b656;" vertex="1" parent="1">
          <mxGeometry x="254" y="2762" width="60" height="60" as="geometry" />
        </mxCell>
        <mxCell id="5CUBUq4CtGVq6OdzhweH-199" value="MAN #3" style="rhombus;whiteSpace=wrap;html=1;labelBackgroundColor=none;labelBorderColor=none;fillColor=#fff2cc;gradientDirection=east;strokeColor=#d6b656;" vertex="1" parent="1">
          <mxGeometry x="254" y="2822" width="60" height="60" as="geometry" />
        </mxCell>
        <mxCell id="5CUBUq4CtGVq6OdzhweH-200" value="MAN #4" style="rhombus;whiteSpace=wrap;html=1;labelBackgroundColor=none;labelBorderColor=none;fillColor=#fff2cc;gradientDirection=east;strokeColor=#d6b656;" vertex="1" parent="1">
          <mxGeometry x="254" y="2882" width="60" height="60" as="geometry" />
        </mxCell>
        <mxCell id="5CUBUq4CtGVq6OdzhweH-201" value="DEP #1" style="rhombus;whiteSpace=wrap;html=1;labelBackgroundColor=none;labelBorderColor=none;fillColor=#fff2cc;gradientDirection=east;strokeColor=#d6b656;" vertex="1" parent="1">
          <mxGeometry x="314" y="2702" width="60" height="60" as="geometry" />
        </mxCell>
        <mxCell id="5CUBUq4CtGVq6OdzhweH-202" value="DEP #3" style="rhombus;whiteSpace=wrap;html=1;labelBackgroundColor=none;labelBorderColor=none;fillColor=#fff2cc;gradientDirection=east;strokeColor=#d6b656;" vertex="1" parent="1">
          <mxGeometry x="314" y="2822" width="60" height="60" as="geometry" />
        </mxCell>
        <mxCell id="5CUBUq4CtGVq6OdzhweH-203" style="edgeStyle=orthogonalEdgeStyle;rounded=0;orthogonalLoop=1;jettySize=auto;html=1;entryX=0;entryY=0.5;entryDx=0;entryDy=0;startArrow=classic;startFill=1;strokeColor=#66B2FF;exitX=1;exitY=0.5;exitDx=0;exitDy=0;" edge="1" parent="1" source="5CUBUq4CtGVq6OdzhweH-145" target="5CUBUq4CtGVq6OdzhweH-155">
          <mxGeometry relative="1" as="geometry">
            <mxPoint x="380" y="3310" as="sourcePoint" />
            <mxPoint x="510" y="3310" as="targetPoint" />
          </mxGeometry>
        </mxCell>
        <mxCell id="5CUBUq4CtGVq6OdzhweH-204" value="ARR #1" style="rhombus;whiteSpace=wrap;html=1;labelBackgroundColor=none;labelBorderColor=none;fillColor=#fff2cc;gradientDirection=east;strokeColor=#d6b656;" vertex="1" parent="1">
          <mxGeometry x="374" y="2702" width="60" height="60" as="geometry" />
        </mxCell>
        <mxCell id="5CUBUq4CtGVq6OdzhweH-206" value="FOH" style="rhombus;whiteSpace=wrap;html=1;labelBackgroundColor=none;labelBorderColor=none;fillColor=#d5e8d4;strokeColor=#82b366;" vertex="1" parent="1">
          <mxGeometry x="85" y="3318" width="60" height="60" as="geometry" />
        </mxCell>
        <mxCell id="5CUBUq4CtGVq6OdzhweH-207" value="RCS" style="rhombus;whiteSpace=wrap;html=1;labelBackgroundColor=none;labelBorderColor=none;fillColor=#d5e8d4;strokeColor=#82b366;" vertex="1" parent="1">
          <mxGeometry x="145" y="3318" width="60" height="60" as="geometry" />
        </mxCell>
        <mxCell id="5CUBUq4CtGVq6OdzhweH-208" value="MAN #3" style="rhombus;whiteSpace=wrap;html=1;labelBackgroundColor=none;labelBorderColor=none;fillColor=#d5e8d4;strokeColor=#82b366;" vertex="1" parent="1">
          <mxGeometry x="205" y="3318" width="60" height="60" as="geometry" />
        </mxCell>
        <mxCell id="5CUBUq4CtGVq6OdzhweH-209" value="DEP #3" style="rhombus;whiteSpace=wrap;html=1;labelBackgroundColor=none;labelBorderColor=none;fillColor=#d5e8d4;strokeColor=#82b366;" vertex="1" parent="1">
          <mxGeometry x="265" y="3318" width="60" height="60" as="geometry" />
        </mxCell>
        <mxCell id="5CUBUq4CtGVq6OdzhweH-210" value="MAN #4" style="rhombus;whiteSpace=wrap;html=1;labelBackgroundColor=none;labelBorderColor=none;fillColor=#d5e8d4;strokeColor=#82b366;" vertex="1" parent="1">
          <mxGeometry x="205" y="3378" width="60" height="60" as="geometry" />
        </mxCell>
      </root>
    </mxGraphModel>
  </diagram>
</mxfile>
